<svg id="eum3tmm8zjm1" xmlns="http://www.w3.org/2000/svg" xmlns:xlink="http://www.w3.org/1999/xlink" viewBox="0 0 888 485.489000" shape-rendering="geometricPrecision" text-rendering="geometricPrecision"><circle id="eum3tmm8zjm2" r="241.754000" transform="matrix(1 0 0 1 444.50799999999998 241.75399999999999)" fill="rgb(108,99,255)" stroke="none" stroke-width="1"/><path id="eum3tmm8zjm3" d="M600.508080,625.466630C516.325591,625.466075,443.866455,565.999700,427.443674,483.434673C411.020893,400.869646,455.208427,318.201404,532.983011,285.986417C610.757596,253.771429,700.457996,280.981991,747.227165,350.977249C793.996334,420.972508,784.808449,514.257872,725.282440,573.783880C692.262576,606.984165,647.332796,625.594516,600.508080,625.466630ZM600.508080,283.435230C509.210000,283.435230,434.933780,357.711440,434.933780,449.009520C434.933780,540.307220,509.210000,614.583820,600.508080,614.583820C691.805780,614.583820,766.082370,540.307220,766.082370,449.009520C766.082370,357.711440,691.805780,283.435230,600.508080,283.435230Z" transform="matrix(1 0 0 1 -156 -207.25500000000000)" opacity="0.2" fill="rgb(0,0,0)" stroke="none" stroke-width="1"/><circle id="eum3tmm8zjm4" r="171.016000" transform="matrix(1 0 0 1 444.50799999999998 241.75399999999999)" fill="rgb(63,61,86)" stroke="none" stroke-width="1"/><path id="eum3tmm8zjm5" d="M473.327420,380.627420C469.798928,373.716550,470.228309,365.447684,474.453621,358.939449C478.678932,352.431214,486.057309,348.673814,493.805976,349.084363C501.554643,349.494912,508.494667,354.010946,512.008600,360.929230L560.324920,455.807590C563.853412,462.718460,563.424031,470.987326,559.198719,477.495561C554.973408,484.003796,547.595031,487.761196,539.846364,487.350647C532.097697,486.940098,525.157673,482.424064,521.643740,475.505780Z" transform="matrix(1 0 0 1 -156 -207.25500000000000)" fill="rgb(255,101,132)" stroke="none" stroke-width="1"/><path id="eum3tmm8zjm6" d="M478.716550,391.210000L476.486550,386.831000C487.615710,378.183640,500.684430,371.824000,515.167730,367.132810L517.397730,371.511810C501.722320,374.776070,488.386160,380.817000,478.716550,391.210000Z" transform="matrix(1 0 0 1 -156 -207.25500000000000)" opacity="0.2" fill="rgb(0,0,0)" stroke="none" stroke-width="1"/><path id="eum3tmm8zjm7" d="M489.123140,411.645340L486.893140,407.266340C498.022290,398.618980,511.091020,392.259340,525.574310,387.568150L527.804310,391.947150C512.128910,395.211410,498.792750,401.252360,489.123140,411.645340Z" transform="matrix(1 0 0 1 -156 -207.25500000000000)" opacity="0.2" fill="rgb(0,0,0)" stroke="none" stroke-width="1"/><path id="eum3tmm8zjm8" d="M499.529730,432.080680L497.299730,427.701680C508.428880,419.054320,521.497610,412.694680,535.980910,408.003490L538.210910,412.382490C522.535500,415.646750,509.199350,421.687700,499.529730,432.080680Z" transform="matrix(1 0 0 1 -156 -207.25500000000000)" opacity="0.2" fill="rgb(0,0,0)" stroke="none" stroke-width="1"/><path id="eum3tmm8zjm9" d="M509.936320,452.516000L507.706320,448.137000C518.835480,439.489640,531.904200,433.130000,546.387500,428.438810L548.617500,432.817810C532.942090,436.082090,519.605940,442.123000,509.936320,452.516000Z" transform="matrix(1 0 0 1 -156 -207.25500000000000)" opacity="0.2" fill="rgb(0,0,0)" stroke="none" stroke-width="1"/><path id="eum3tmm8zjm10" d="M520.342920,472.951360L518.112920,468.572360C529.242080,459.925000,542.310800,453.565360,556.794100,448.874170L559.024100,453.253170C543.348680,456.517430,530.012530,462.558380,520.342920,472.951360Z" transform="matrix(1 0 0 1 -156 -207.25500000000000)" opacity="0.2" fill="rgb(0,0,0)" stroke="none" stroke-width="1"/><path id="eum3tmm8zjm11" d="M437.079060,416.146430C433.551534,409.235673,433.981456,400.967481,438.206699,394.459845C442.431942,387.952209,449.809744,384.195100,457.557886,384.605348C465.306027,385.015597,472.245828,389.530795,475.760240,396.448230L524.076560,491.326600C529.500779,502.005884,525.248269,515.060475,514.574701,520.495934C503.901133,525.931393,490.842073,521.692629,485.395380,511.024790Z" transform="matrix(1 0 0 1 -156 -207.25500000000000)" fill="rgb(255,101,132)" stroke="none" stroke-width="1"/><path id="eum3tmm8zjm12" d="M442.468190,426.729000L440.238190,422.350000C451.367350,413.702640,464.436070,407.343000,478.919370,402.651810L481.149370,407.030810C465.474000,410.295080,452.137800,416.336000,442.468190,426.729000Z" transform="matrix(1 0 0 1 -156 -207.25500000000000)" opacity="0.2" fill="rgb(0,0,0)" stroke="none" stroke-width="1"/><path id="eum3tmm8zjm13" d="M452.874780,447.164350L450.644780,442.785350C461.773930,434.137990,474.842660,427.778350,489.325960,423.087160L491.555960,427.466160C475.880550,430.730420,462.544400,436.771370,452.874780,447.164350Z" transform="matrix(1 0 0 1 -156 -207.25500000000000)" opacity="0.2" fill="rgb(0,0,0)" stroke="none" stroke-width="1"/><path id="eum3tmm8zjm14" d="M463.281370,467.599690L461.051370,463.220690C472.180520,454.573330,485.249250,448.213690,499.732550,443.522500L501.962550,447.901500C486.287140,451.165760,472.951000,457.206710,463.281370,467.599690Z" transform="matrix(1 0 0 1 -156 -207.25500000000000)" opacity="0.2" fill="rgb(0,0,0)" stroke="none" stroke-width="1"/><path id="eum3tmm8zjm15" d="M473.688000,488.035000L471.458000,483.656000C482.587160,475.008640,495.655880,468.649000,510.139180,463.957810L512.369180,468.336810C496.693730,471.601100,483.357580,477.642050,473.688000,488.035000Z" transform="matrix(1 0 0 1 -156 -207.25500000000000)" opacity="0.2" fill="rgb(0,0,0)" stroke="none" stroke-width="1"/><path id="eum3tmm8zjm16" d="M484.094560,508.470370L481.864560,504.091370C492.993720,495.444010,506.062440,489.084370,520.545740,484.393180L522.775740,488.772180C507.100320,492.036440,493.764170,498.077390,484.094560,508.470370Z" transform="matrix(1 0 0 1 -156 -207.25500000000000)" opacity="0.2" fill="rgb(0,0,0)" stroke="none" stroke-width="1"/><path id="eum3tmm8zjm17" d="M714.777660,454.450930L714.930230,454.451060C725.580610,454.540475,735.198904,448.097845,739.169470,438.214870C743.159725,428.128304,745.170690,417.367822,745.092570,406.520940C744.821130,360.610210,707.470340,322.945790,661.563210,322.310730C621.254390,321.746456,586.127449,349.655980,577.566168,389.049175C569.004888,428.442371,589.379302,468.413944,626.286340,484.630910C635.968870,488.917831,647.290212,486.818497,654.792000,479.345060C670.669973,463.383504,692.263654,454.422097,714.777660,454.450930Z" transform="matrix(1 0 0 1 -156 -207.25500000000000)" fill="rgb(230,230,230)" stroke="none" stroke-width="1"/><circle id="eum3tmm8zjm18" r="27.984400" transform="matrix(1 0 0 1 515.24599999999998 193.55900000000000)" fill="rgb(249,168,37)" stroke="none" stroke-width="1"/><circle id="eum3tmm8zjm19" r="3.296690" transform="matrix(1 0 0 1 454.42599999999999 187.11500000000001)" fill="rgb(63,61,86)" stroke="none" stroke-width="1"/><circle id="eum3tmm8zjm20" r="3.296690" transform="matrix(1 0 0 1 345.59800000000001 190.22499999999999)" fill="rgb(63,61,86)" stroke="none" stroke-width="1"/><circle id="eum3tmm8zjm21" r="3.296690" transform="matrix(1 0 0 1 471.99599999999998 152.94900000000001)" fill="rgb(63,61,86)" stroke="none" stroke-width="1"/><circle id="eum3tmm8zjm22" r="3.296690" transform="matrix(1 0 0 1 471.90199999999999 247.97300000000001)" fill="rgb(63,61,86)" stroke="none" stroke-width="1"/><circle id="eum3tmm8zjm23" r="3.296690" transform="matrix(1 0 0 1 537.19899999999996 146.14099999999999)" fill="rgb(63,61,86)" stroke="none" stroke-width="1"/><circle id="eum3tmm8zjm24" r="3.296690" transform="matrix(1 0 0 1 324.20699999999999 236.31299999999999)" fill="rgb(63,61,86)" stroke="none" stroke-width="1"/><circle id="eum3tmm8zjm25" r="3.296690" transform="matrix(1 0 0 1 348.30500000000001 283.73099999999999)" fill="rgb(63,61,86)" stroke="none" stroke-width="1"/><circle id="eum3tmm8zjm26" r="12.437500" transform="matrix(1 0 0 1 499.69999999999999 289.94900000000001)" fill="rgb(255,101,132)" stroke="none" stroke-width="1"/><path id="eum3tmm8zjm27" d="M665.027640,497.982200C665.027640,503.133984,660.851294,507.310330,655.699510,507.310330C650.547726,507.310330,646.371380,503.133984,646.371380,497.982200" transform="matrix(1 0 0 1 -156 -207.25500000000000)" opacity="0.2" fill="rgb(0,0,0)" stroke="none" stroke-width="1"/><path id="eum3tmm8zjm28" d="M646.371380,496.427510C646.371380,491.275726,650.547726,487.099380,655.699510,487.099380C660.851294,487.099380,665.027640,491.275726,665.027640,496.427510" transform="matrix(1 0 0 1 -156 -207.25500000000000)" opacity="0.2" fill="rgb(0,0,0)" stroke="none" stroke-width="1"/><ellipse id="eum3tmm8zjm29" rx="0.777340" ry="1.166020" transform="matrix(1 0 0 1 495.03500000000003 285.67399999999998)" fill="rgb(255,101,132)" stroke="none" stroke-width="1"/><ellipse id="eum3tmm8zjm30" rx="0.777340" ry="1.166020" transform="matrix(1 0 0 1 499.69999999999999 284.11900000000003)" fill="rgb(255,101,132)" stroke="none" stroke-width="1"/><ellipse id="eum3tmm8zjm31" rx="0.777340" ry="1.166020" transform="matrix(1 0 0 1 499.69999999999999 294.22500000000002)" fill="rgb(255,101,132)" stroke="none" stroke-width="1"/><ellipse id="eum3tmm8zjm32" rx="0.777340" ry="1.166020" transform="matrix(1 0 0 1 504.36399999999998 288.00599999999997)" fill="rgb(255,101,132)" stroke="none" stroke-width="1"/><ellipse id="eum3tmm8zjm33" rx="0.777340" ry="1.166020" transform="matrix(1 0 0 1 503.58600000000001 296.55700000000002)" fill="rgb(255,101,132)" stroke="none" stroke-width="1"/><ellipse id="eum3tmm8zjm34" rx="0.777340" ry="1.166020" transform="matrix(1 0 0 1 494.25799999999998 292.67000000000002)" fill="rgb(255,101,132)" stroke="none" stroke-width="1"/><circle id="eum3tmm8zjm35" r="12.437500" transform="matrix(1 0 0 1 524.57500000000005 256.52400000000000)" fill="rgb(255,101,132)" stroke="none" stroke-width="1"/><path id="eum3tmm8zjm36" d="M689.902650,464.556400C689.902650,469.708184,685.726304,473.884530,680.574520,473.884530C675.422736,473.884530,671.246390,469.708184,671.246390,464.556400" transform="matrix(1 0 0 1 -156 -207.25500000000000)" opacity="0.2" fill="rgb(0,0,0)" stroke="none" stroke-width="1"/><path id="eum3tmm8zjm37" d="M671.246390,463.001720C671.246390,457.849936,675.422736,453.673590,680.574520,453.673590C685.726304,453.673590,689.902650,457.849936,689.902650,463.001720" transform="matrix(1 0 0 1 -156 -207.25500000000000)" opacity="0.2" fill="rgb(0,0,0)" stroke="none" stroke-width="1"/><ellipse id="eum3tmm8zjm38" rx="0.777340" ry="1.166020" transform="matrix(1 0 0 1 519.90999999999997 252.24799999999999)" fill="rgb(255,101,132)" stroke="none" stroke-width="1"/><ellipse id="eum3tmm8zjm39" rx="0.777340" ry="1.166020" transform="matrix(1 0 0 1 524.57500000000005 250.69300000000001)" fill="rgb(255,101,132)" stroke="none" stroke-width="1"/><ellipse id="eum3tmm8zjm40" rx="0.777340" ry="1.166020" transform="matrix(1 0 0 1 524.57500000000005 260.79899999999998)" fill="rgb(255,101,132)" stroke="none" stroke-width="1"/><ellipse id="eum3tmm8zjm41" rx="0.777340" ry="1.166020" transform="matrix(1 0 0 1 529.23900000000003 254.58000000000001)" fill="rgb(255,101,132)" stroke="none" stroke-width="1"/><ellipse id="eum3tmm8zjm42" rx="0.777340" ry="1.166020" transform="matrix(1 0 0 1 528.46100000000001 263.13099999999997)" fill="rgb(255,101,132)" stroke="none" stroke-width="1"/><ellipse id="eum3tmm8zjm43" rx="0.777340" ry="1.166020" transform="matrix(1 0 0 1 519.13300000000004 259.24400000000003)" fill="rgb(255,101,132)" stroke="none" stroke-width="1"/><circle id="eum3tmm8zjm44" r="12.437500" transform="matrix(1 0 0 1 549.45000000000005 273.62500000000000)" fill="rgb(108,99,255)" stroke="none" stroke-width="1"/><path id="eum3tmm8zjm45" d="M714.777660,481.658000C714.777660,486.809784,710.601314,490.986130,705.449530,490.986130C700.297746,490.986130,696.121400,486.809784,696.121400,481.658000" transform="matrix(1 0 0 1 -156 -207.25500000000000)" opacity="0.2" fill="rgb(0,0,0)" stroke="none" stroke-width="1"/><path id="eum3tmm8zjm46" d="M696.121400,480.103290C696.121400,474.951506,700.297746,470.775160,705.449530,470.775160C710.601314,470.775160,714.777660,474.951506,714.777660,480.103290" transform="matrix(1 0 0 1 -156 -207.25500000000000)" opacity="0.2" fill="rgb(0,0,0)" stroke="none" stroke-width="1"/><ellipse id="eum3tmm8zjm47" rx="0.777340" ry="1.166020" transform="matrix(1 0 0 1 544.78499999999997 269.35000000000002)" fill="rgb(108,99,255)" stroke="none" stroke-width="1"/><ellipse id="eum3tmm8zjm48" rx="0.777340" ry="1.166020" transform="matrix(1 0 0 1 549.45000000000005 267.79500000000002)" fill="rgb(108,99,255)" stroke="none" stroke-width="1"/><ellipse id="eum3tmm8zjm49" rx="0.777340" ry="1.166020" transform="matrix(1 0 0 1 549.45000000000005 277.90100000000001)" fill="rgb(108,99,255)" stroke="none" stroke-width="1"/><ellipse id="eum3tmm8zjm50" rx="0.777340" ry="1.166020" transform="matrix(1 0 0 1 554.11400000000003 271.68200000000002)" fill="rgb(108,99,255)" stroke="none" stroke-width="1"/><ellipse id="eum3tmm8zjm51" rx="0.777340" ry="1.166020" transform="matrix(1 0 0 1 553.33600000000001 280.23300000000000)" fill="rgb(108,99,255)" stroke="none" stroke-width="1"/><ellipse id="eum3tmm8zjm52" rx="0.777340" ry="1.166020" transform="matrix(1 0 0 1 544.00800000000004 276.34600000000000)" fill="rgb(108,99,255)" stroke="none" stroke-width="1"/><circle id="eum3tmm8zjm53" r="12.437500" transform="matrix(1 0 0 1 487.26200000000000 275.18000000000001)" fill="rgb(108,99,255)" stroke="none" stroke-width="1"/><path id="eum3tmm8zjm54" d="M652.590130,483.212660C652.590130,488.364444,648.413784,492.540790,643.262000,492.540790C638.110216,492.540790,633.933870,488.364444,633.933870,483.212660" transform="matrix(1 0 0 1 -156 -207.25500000000000)" opacity="0.2" fill="rgb(0,0,0)" stroke="none" stroke-width="1"/><path id="eum3tmm8zjm55" d="M633.933870,481.658000C633.933870,476.506216,638.110216,472.329870,643.262000,472.329870C648.413784,472.329870,652.590130,476.506216,652.590130,481.658000" transform="matrix(1 0 0 1 -156 -207.25500000000000)" opacity="0.2" fill="rgb(0,0,0)" stroke="none" stroke-width="1"/><ellipse id="eum3tmm8zjm56" rx="0.777340" ry="1.166020" transform="matrix(1 0 0 1 482.59800000000001 270.90400000000000)" fill="rgb(108,99,255)" stroke="none" stroke-width="1"/><ellipse id="eum3tmm8zjm57" rx="0.777340" ry="1.166020" transform="matrix(1 0 0 1 487.26200000000000 269.35000000000002)" fill="rgb(108,99,255)" stroke="none" stroke-width="1"/><ellipse id="eum3tmm8zjm58" rx="0.777340" ry="1.166020" transform="matrix(1 0 0 1 487.26200000000000 279.45499999999998)" fill="rgb(108,99,255)" stroke="none" stroke-width="1"/><ellipse id="eum3tmm8zjm59" rx="0.777340" ry="1.166020" transform="matrix(1 0 0 1 491.92599999999999 273.23599999999999)" fill="rgb(108,99,255)" stroke="none" stroke-width="1"/><ellipse id="eum3tmm8zjm60" rx="0.777340" ry="1.166020" transform="matrix(1 0 0 1 491.14900000000000 281.78699999999998)" fill="rgb(108,99,255)" stroke="none" stroke-width="1"/><ellipse id="eum3tmm8zjm61" rx="0.777340" ry="1.166020" transform="matrix(1 0 0 1 481.82100000000003 277.90100000000001)" fill="rgb(108,99,255)" stroke="none" stroke-width="1"/><circle id="eum3tmm8zjm62" r="12.437500" transform="matrix(1 0 0 1 515.24599999999998 280.62099999999998)" fill="rgb(108,99,255)" stroke="none" stroke-width="1"/><path id="eum3tmm8zjm63" d="M680.574520,488.654070C680.574520,491.986690,678.796589,495.066158,675.910455,496.732468C673.024322,498.398778,669.468458,498.398778,666.582325,496.732468C663.696191,495.066158,661.918260,491.986690,661.918260,488.654070" transform="matrix(1 0 0 1 -156 -207.25500000000000)" opacity="0.2" fill="rgb(0,0,0)" stroke="none" stroke-width="1"/><path id="eum3tmm8zjm64" d="M661.918260,487.099380C661.918260,483.766760,663.696191,480.687292,666.582325,479.020982C669.468458,477.354672,673.024322,477.354672,675.910455,479.020982C678.796589,480.687292,680.574520,483.766760,680.574520,487.099380" transform="matrix(1 0 0 1 -156 -207.25500000000000)" opacity="0.2" fill="rgb(0,0,0)" stroke="none" stroke-width="1"/><ellipse id="eum3tmm8zjm65" rx="0.777340" ry="1.166020" transform="matrix(1 0 0 1 510.58199999999999 276.34600000000000)" fill="rgb(108,99,255)" stroke="none" stroke-width="1"/><ellipse id="eum3tmm8zjm66" rx="0.777340" ry="1.166020" transform="matrix(1 0 0 1 515.24599999999998 274.79100000000000)" fill="rgb(108,99,255)" stroke="none" stroke-width="1"/><ellipse id="eum3tmm8zjm67" rx="0.777340" ry="1.166020" transform="matrix(1 0 0 1 515.24599999999998 284.89699999999999)" fill="rgb(108,99,255)" stroke="none" stroke-width="1"/><ellipse id="eum3tmm8zjm68" rx="0.777340" ry="1.166020" transform="matrix(1 0 0 1 519.90999999999997 278.67800000000000)" fill="rgb(108,99,255)" stroke="none" stroke-width="1"/><ellipse id="eum3tmm8zjm69" rx="0.777340" ry="1.166020" transform="matrix(1 0 0 1 519.13300000000004 287.22899999999998)" fill="rgb(108,99,255)" stroke="none" stroke-width="1"/><ellipse id="eum3tmm8zjm70" rx="0.777340" ry="1.166020" transform="matrix(1 0 0 1 509.80500000000001 283.34199999999998)" fill="rgb(108,99,255)" stroke="none" stroke-width="1"/><circle id="eum3tmm8zjm71" r="12.437500" transform="matrix(1 0 0 1 534.67999999999995 293.83600000000001)" fill="rgb(255,101,132)" stroke="none" stroke-width="1"/><path id="eum3tmm8zjm72" d="M700.008120,501.868920C700.008120,507.020701,695.831776,511.197045,690.679995,511.197045C685.528214,511.197045,681.351870,507.020701,681.351870,501.868920" transform="matrix(1 0 0 1 -156 -207.25500000000000)" opacity="0.2" fill="rgb(0,0,0)" stroke="none" stroke-width="1"/><path id="eum3tmm8zjm73" d="M681.351870,500.314230C681.351870,495.162449,685.528214,490.986105,690.679995,490.986105C695.831776,490.986105,700.008120,495.162449,700.008120,500.314230" transform="matrix(1 0 0 1 -156 -207.25500000000000)" opacity="0.2" fill="rgb(0,0,0)" stroke="none" stroke-width="1"/><ellipse id="eum3tmm8zjm74" rx="0.777340" ry="1.166020" transform="matrix(1 0 0 1 530.01599999999996 289.56099999999998)" fill="rgb(255,101,132)" stroke="none" stroke-width="1"/><ellipse id="eum3tmm8zjm75" rx="0.777340" ry="1.166020" transform="matrix(1 0 0 1 534.67999999999995 288.00599999999997)" fill="rgb(255,101,132)" stroke="none" stroke-width="1"/><ellipse id="eum3tmm8zjm76" rx="0.777340" ry="1.166020" transform="matrix(1 0 0 1 534.67999999999995 298.11099999999999)" fill="rgb(255,101,132)" stroke="none" stroke-width="1"/><ellipse id="eum3tmm8zjm77" rx="0.777340" ry="1.166020" transform="matrix(1 0 0 1 539.34400000000005 291.89299999999997)" fill="rgb(255,101,132)" stroke="none" stroke-width="1"/><ellipse id="eum3tmm8zjm78" rx="0.777340" ry="1.166020" transform="matrix(1 0 0 1 538.56700000000001 300.44400000000002)" fill="rgb(255,101,132)" stroke="none" stroke-width="1"/><ellipse id="eum3tmm8zjm79" rx="0.777340" ry="1.166020" transform="matrix(1 0 0 1 529.23900000000003 296.55700000000002)" fill="rgb(255,101,132)" stroke="none" stroke-width="1"/><circle id="eum3tmm8zjm80" r="3.296690" transform="matrix(1 0 0 1 374.73399999999998 246.41800000000001)" fill="rgb(63,61,86)" stroke="none" stroke-width="1"/><polygon id="eum3tmm8zjm81" points="464.345000,366.080000 385.170000,344.123000 388.203000,332.857000 467.378000,354.815000 464.345000,366.080000" fill="rgb(249,168,37)" stroke="none" stroke-width="1"/><path id="eum3tmm8zjm82" d="M608.738060,569.570430C581.625005,574.760800,553.773445,574.760800,526.660390,569.570430L526.660390,557.892120C553.834268,562.395850,581.564182,562.395850,608.738060,557.892120Z" transform="matrix(1 0 0 1 -156 -207.25500000000000)" fill="rgb(249,168,37)" stroke="none" stroke-width="1"/><path id="eum3tmm8zjm83" d="M617.175950,534.535520C590.062895,539.725890,562.211335,539.725890,535.098280,534.535520L535.098280,522.857210C562.272159,527.360930,590.002071,527.360930,617.175950,522.857210Z" transform="matrix(1 0 0 1 -156 -207.25500000000000)" fill="rgb(249,168,37)" stroke="none" stroke-width="1"/><path id="eum3tmm8zjm84" d="M645.558000,548.549480C618.444942,553.739850,590.593378,553.739850,563.480320,548.549480L563.480320,536.871180C590.654202,541.374900,618.384118,541.374900,645.558000,536.871180Z" transform="matrix(1 0 0 1 -156 -207.25500000000000)" fill="rgb(249,168,37)" stroke="none" stroke-width="1"/><path id="eum3tmm8zjm85" d="M652.461680,561.784890C625.348626,566.975270,597.497064,566.975270,570.384010,561.784890L570.384010,550.106590C597.557889,554.610310,625.287801,554.610310,652.461680,550.106590Z" transform="matrix(1 0 0 1 -156 -207.25500000000000)" fill="rgb(249,168,37)" stroke="none" stroke-width="1"/><polygon id="eum3tmm8zjm86" points="520.531000,371.824000 439.554000,385.426000 437.676000,373.904000 518.652000,360.302000 520.531000,371.824000" fill="rgb(249,168,37)" stroke="none" stroke-width="1"/><path id="eum3tmm8zjm87" d="M664.434940,580.576770C641.984441,596.759928,616.681714,608.561202,589.854860,615.361160L585.050400,604.749640C611.642462,597.303507,636.835802,585.553251,659.630470,569.965250Z" transform="matrix(1 0 0 1 -156 -207.25500000000000)" fill="rgb(249,168,37)" stroke="none" stroke-width="1"/><path id="eum3tmm8zjm88" d="M657.688660,545.166250C635.238165,561.349409,609.935441,573.150683,583.108590,579.950640L578.304130,569.339120C604.896192,561.892987,630.089532,550.142731,652.884200,534.554730Z" transform="matrix(1 0 0 1 -156 -207.25500000000000)" fill="rgb(249,168,37)" stroke="none" stroke-width="1"/><path id="eum3tmm8zjm89" d="M689.243390,545.871820C666.792894,562.054983,641.490165,573.856257,614.663310,580.656210L609.858850,570.044700C636.450914,562.598559,661.644256,550.848300,684.438930,535.260300Z" transform="matrix(1 0 0 1 -156 -207.25500000000000)" fill="rgb(249,168,37)" stroke="none" stroke-width="1"/><path id="eum3tmm8zjm90" d="M700.961530,554.972420C678.511035,571.155579,653.208311,582.956853,626.381460,589.756810L621.577000,579.145290C648.169062,571.699157,673.362402,559.948901,696.157070,544.360900Z" transform="matrix(1 0 0 1 -156 -207.25500000000000)" fill="rgb(249,168,37)" stroke="none" stroke-width="1"/><rect id="eum3tmm8zjm91" width="3.886720" height="3.886720" rx="0" ry="0" transform="matrix(1 0 0 1 442.95299999999997 324.93000000000001)" fill="rgb(0,191,113)" stroke="none" stroke-width="1"/><rect id="eum3tmm8zjm92" width="3.886720" height="3.886720" rx="0" ry="0" transform="matrix(1 0 0 1 454.61399999999998 392.55900000000003)" fill="rgb(0,191,113)" stroke="none" stroke-width="1"/><rect id="eum3tmm8zjm93" width="3.886720" height="3.886720" rx="0" ry="0" transform="matrix(1 0 0 1 392.42599999999999 324.93000000000001)" fill="rgb(0,191,113)" stroke="none" stroke-width="1"/><rect id="eum3tmm8zjm94" width="3.886720" height="3.886720" rx="0" ry="0" transform="matrix(1 0 0 1 482.59800000000001 373.12500000000000)" fill="rgb(0,191,113)" stroke="none" stroke-width="1"/><rect id="eum3tmm8zjm95" width="3.886720" height="3.886720" rx="0" ry="0" transform="matrix(1 0 0 1 484.93000000000001 350.58199999999999)" fill="rgb(0,191,113)" stroke="none" stroke-width="1"/><rect id="eum3tmm8zjm96" width="5.441410" height="3.109380" rx="0" ry="0" transform="matrix(0.82751500000000 0.56144400000000 -0.56144400000000 0.82751500000000 420.19840524000006 336.88513306400006)" fill="rgb(0,191,113)" stroke="none" stroke-width="1"/><rect id="eum3tmm8zjm97" width="5.441410" height="3.109380" rx="0" ry="0" transform="matrix(0.82751500000000 0.56144400000000 -0.56144400000000 0.82751500000000 466.06081804099995 345.43672000100008)" fill="rgb(0,191,113)" stroke="none" stroke-width="1"/><rect id="eum3tmm8zjm98" width="5.441410" height="3.109380" rx="0" ry="0" transform="matrix(0.82751500000000 0.56144400000000 -0.56144400000000 0.82751500000000 410.09210312599998 360.20565731500005)" fill="rgb(0,191,113)" stroke="none" stroke-width="1"/><rect id="eum3tmm8zjm99" width="5.441410" height="3.109380" rx="0" ry="0" transform="matrix(-0.56144400000000 0.82751500000000 -0.82751500000000 -0.56144400000000 446.15913261100013 358.53192453100007)" fill="rgb(0,191,113)" stroke="none" stroke-width="1"/><rect id="eum3tmm8zjm100" width="5.441410" height="3.109380" rx="0" ry="0" transform="matrix(-0.56144400000000 0.82751500000000 -0.82751500000000 -0.56144400000000 467.14164786500010 363.97325861800016)" fill="rgb(0,191,113)" stroke="none" stroke-width="1"/><rect id="eum3tmm8zjm101" width="5.441410" height="3.109380" rx="0" ry="0" transform="matrix(-0.56144000000000 0.82751000000000 -0.82751000000000 -0.56144000000000 523.12315372000012 345.31572053999992)" fill="rgb(0,191,113)" stroke="none" stroke-width="1"/></svg>